<svg width="445" height="171" viewBox="0 0 445 171" fill="none" xmlns="http://www.w3.org/2000/svg">
<path d="M283.557 78.4046L252.551 28.6318C251.995 27.7315 251.219 26.9885 250.297 26.4733C249.374 25.958 248.336 25.6876 247.28 25.6876C246.224 25.6876 245.186 25.958 244.264 26.4733C243.341 26.9885 242.565 27.7315 242.009 28.6318L235.808 38.773L215.406 3.93201C214.857 3.00361 214.076 2.23452 213.141 1.70034C212.206 1.16615 211.149 0.885254 210.073 0.885254C208.997 0.885254 207.939 1.16615 207.004 1.70034C206.069 2.23452 205.289 3.00361 204.74 3.93201L161.331 78.5913C160.788 79.5343 160.502 80.6038 160.5 81.6927C160.498 82.7817 160.782 83.852 161.321 84.7967C161.861 85.7414 162.639 86.5274 163.576 87.0762C164.514 87.6249 165.579 87.9171 166.664 87.9237H278.286C279.394 87.9259 280.483 87.6303 281.438 87.0675C282.394 86.5047 283.182 85.6953 283.72 84.7236C284.258 83.7518 284.526 82.6532 284.498 81.5419C284.469 80.4306 284.145 79.3473 283.557 78.4046ZM212.863 75.4805H177.454L210.073 19.486L228.242 50.5941L212.863 75.4805ZM227.436 75.4805L241.079 54.1404L247.28 43.6881L267.124 75.4805H227.436Z" fill="white" fill-opacity="0.8"/>
<path d="M17.184 129.428C17.28 129.428 17.36 129.508 17.424 129.668C17.488 129.796 17.472 129.892 17.376 129.956C16.064 130.884 14.896 131.54 13.872 131.924C12.88 132.308 11.808 132.5 10.656 132.5C8.8 132.5 7.248 131.988 6 130.964C4.784 129.94 4.176 128.244 4.176 125.876V113.3C4.176 112.564 4.112 112.036 3.984 111.716C3.856 111.396 3.616 111.188 3.264 111.092C2.944 110.964 2.4 110.9 1.632 110.9C1.536 110.9 1.488 110.772 1.488 110.516C1.488 110.292 1.536 110.18 1.632 110.18C3.072 110.18 4.272 109.844 5.232 109.172C6.224 108.468 6.8 107.572 6.96 106.484C6.96 106.388 7.072 106.34 7.296 106.34C7.392 106.34 7.472 106.356 7.536 106.388C7.632 106.42 7.68 106.468 7.68 106.532V110.036C9.44 110.004 12.24 109.86 16.08 109.604C16.176 109.604 16.256 109.716 16.32 109.94C16.384 110.132 16.416 110.372 16.416 110.66C16.416 110.98 16.352 111.3 16.224 111.62C16.128 111.908 16.032 112.036 15.936 112.004C13.504 111.428 10.752 111.108 7.68 111.044V124.484C7.68 126.596 8.08 128.18 8.88 129.236C9.68 130.26 10.912 130.772 12.576 130.772C14.304 130.772 15.808 130.34 17.088 129.476L17.184 129.428ZM47.4697 131.348C47.5338 131.348 47.5658 131.444 47.5658 131.636C47.5658 131.828 47.5338 131.924 47.4697 131.924C46.5098 131.924 45.7578 131.908 45.2137 131.876L42.2858 131.828L39.2137 131.876C38.7017 131.908 37.9818 131.924 37.0538 131.924C36.9577 131.924 36.9097 131.828 36.9097 131.636C36.9097 131.444 36.9577 131.348 37.0538 131.348C38.0777 131.348 38.8137 131.268 39.2618 131.108C39.7418 130.948 40.0617 130.644 40.2217 130.196C40.3817 129.716 40.4617 128.996 40.4617 128.036V121.076H27.6457V128.036C27.6457 128.996 27.7257 129.716 27.8857 130.196C28.0457 130.644 28.3497 130.948 28.7977 131.108C29.2777 131.268 30.0297 131.348 31.0537 131.348C31.1497 131.348 31.1978 131.444 31.1978 131.636C31.1978 131.828 31.1497 131.924 31.0537 131.924C30.1257 131.924 29.4057 131.908 28.8937 131.876L25.8697 131.828L22.8937 131.876C22.3497 131.908 21.5977 131.924 20.6377 131.924C20.5737 131.924 20.5417 131.828 20.5417 131.636C20.5417 131.444 20.5737 131.348 20.6377 131.348C21.6617 131.348 22.4137 131.268 22.8937 131.108C23.3737 130.948 23.6937 130.644 23.8537 130.196C24.0457 129.716 24.1417 128.996 24.1417 128.036V113.348C24.1417 112.388 24.0457 111.684 23.8537 111.236C23.6937 110.788 23.3737 110.484 22.8937 110.324C22.4457 110.132 21.7257 110.036 20.7337 110.036C20.6377 110.036 20.5897 109.94 20.5897 109.748C20.5897 109.556 20.6377 109.46 20.7337 109.46L22.8937 109.508C24.1097 109.572 25.1017 109.604 25.8697 109.604C26.6377 109.604 27.6617 109.572 28.9417 109.508L31.0537 109.46C31.1497 109.46 31.1978 109.556 31.1978 109.748C31.1978 109.94 31.1497 110.036 31.0537 110.036C30.0617 110.036 29.3257 110.132 28.8457 110.324C28.3977 110.516 28.0777 110.852 27.8857 111.332C27.7257 111.78 27.6457 112.484 27.6457 113.444V120.116H40.4617V113.444C40.4617 112.484 40.3817 111.78 40.2217 111.332C40.0617 110.852 39.7418 110.516 39.2618 110.324C38.7818 110.132 38.0458 110.036 37.0538 110.036C36.9577 110.036 36.9097 109.94 36.9097 109.748C36.9097 109.556 36.9577 109.46 37.0538 109.46L39.2137 109.508C40.4298 109.572 41.4538 109.604 42.2858 109.604C43.0218 109.604 43.9978 109.572 45.2137 109.508L47.4697 109.46C47.5338 109.46 47.5658 109.556 47.5658 109.748C47.5658 109.94 47.5338 110.036 47.4697 110.036C46.4457 110.036 45.6937 110.132 45.2137 110.324C44.7338 110.484 44.3978 110.788 44.2058 111.236C44.0458 111.684 43.9658 112.388 43.9658 113.348V128.036C43.9658 128.996 44.0458 129.716 44.2058 130.196C44.3978 130.644 44.7338 130.948 45.2137 131.108C45.6937 131.268 46.4457 131.348 47.4697 131.348ZM69.7897 129.332C69.8857 129.332 69.9657 129.396 70.0297 129.524C70.1257 129.62 70.1417 129.716 70.0777 129.812C67.8377 131.604 65.3737 132.5 62.6857 132.5C60.3177 132.5 58.3017 131.972 56.6377 130.916C54.9737 129.828 53.7257 128.42 52.8937 126.692C52.0617 124.964 51.6457 123.108 51.6457 121.124C51.6457 118.916 52.1737 116.884 53.2297 115.028C54.3177 113.14 55.7577 111.652 57.5497 110.564C59.3417 109.476 61.2937 108.932 63.4057 108.932C65.6137 108.932 67.2777 109.54 68.3977 110.756C69.5497 111.972 70.1257 113.588 70.1257 115.604C70.1257 115.956 70.0777 116.212 69.9817 116.372C69.9177 116.5 69.7737 116.564 69.5497 116.564L55.6297 116.612C55.5017 117.7 55.4377 118.596 55.4377 119.3C55.4377 122.692 56.2537 125.46 57.8857 127.604C59.5177 129.748 61.7577 130.82 64.6057 130.82C65.5017 130.82 66.3977 130.708 67.2937 130.484C68.2217 130.228 69.0377 129.844 69.7417 129.332H69.7897ZM61.8697 109.988C60.3657 109.988 59.0857 110.5 58.0297 111.524C56.9737 112.548 56.2377 113.988 55.8217 115.844L66.1897 115.652C66.2217 113.828 65.8697 112.436 65.1337 111.476C64.3977 110.484 63.3097 109.988 61.8697 109.988ZM107.102 131.348C107.198 131.348 107.246 131.444 107.246 131.636C107.246 131.828 107.198 131.924 107.102 131.924C106.078 131.924 105.262 131.908 104.654 131.876L101.198 131.828L97.4059 131.876C96.8619 131.908 96.1099 131.924 95.1499 131.924C95.0539 131.924 95.0059 131.828 95.0059 131.636C95.0059 131.444 95.0539 131.348 95.1499 131.348C96.3659 131.348 97.2619 131.268 97.8379 131.108C98.4139 130.948 98.7979 130.644 98.9899 130.196C99.1819 129.716 99.2779 128.996 99.2779 128.036V116.852H81.8059V128.036C81.8059 128.996 81.9019 129.716 82.0939 130.196C82.2859 130.644 82.6699 130.948 83.2459 131.108C83.8219 131.268 84.7179 131.348 85.9339 131.348C85.9979 131.348 86.0299 131.444 86.0299 131.636C86.0299 131.828 85.9979 131.924 85.9339 131.924C84.9099 131.924 84.0939 131.908 83.4859 131.876L79.7899 131.828L76.3819 131.876C75.7739 131.908 74.9419 131.924 73.8859 131.924C73.8219 131.924 73.7899 131.828 73.7899 131.636C73.7899 131.444 73.8219 131.348 73.8859 131.348C75.0699 131.348 75.9339 131.268 76.4779 131.108C77.0539 130.948 77.4379 130.644 77.6299 130.196C77.8539 129.716 77.9659 128.996 77.9659 128.036V105.812C77.9659 104.852 77.8699 104.148 77.6779 103.7C77.4859 103.252 77.1179 102.948 76.5739 102.788C76.0299 102.596 75.1659 102.5 73.9819 102.5C73.8859 102.5 73.8379 102.404 73.8379 102.212C73.8379 102.02 73.8859 101.924 73.9819 101.924L76.4299 101.972C77.7739 102.036 78.8939 102.068 79.7899 102.068C80.8139 102.068 82.0619 102.036 83.5339 101.972L85.9339 101.924C85.9979 101.924 86.0299 102.02 86.0299 102.212C86.0299 102.404 85.9979 102.5 85.9339 102.5C84.7499 102.5 83.8699 102.596 83.2939 102.788C82.7179 102.98 82.3179 103.316 82.0939 103.796C81.9019 104.244 81.8059 104.948 81.8059 105.908V115.748H99.2779V105.908C99.2779 104.948 99.1659 104.244 98.9419 103.796C98.7499 103.316 98.3659 102.98 97.7899 102.788C97.2459 102.596 96.3659 102.5 95.1499 102.5C95.0539 102.5 95.0059 102.404 95.0059 102.212C95.0059 102.02 95.0539 101.924 95.1499 101.924L97.4059 101.972C98.8779 102.036 100.142 102.068 101.198 102.068C102.094 102.068 103.246 102.036 104.654 101.972L107.102 101.924C107.198 101.924 107.246 102.02 107.246 102.212C107.246 102.404 107.198 102.5 107.102 102.5C105.918 102.5 105.054 102.596 104.51 102.788C103.966 102.948 103.582 103.252 103.358 103.7C103.166 104.148 103.07 104.852 103.07 105.812V128.036C103.07 128.996 103.166 129.716 103.358 130.196C103.582 130.644 103.966 130.948 104.51 131.108C105.054 131.268 105.918 131.348 107.102 131.348ZM118.705 128.036C118.705 128.996 118.785 129.716 118.945 130.196C119.105 130.644 119.409 130.948 119.857 131.108C120.337 131.268 121.089 131.348 122.113 131.348C122.209 131.348 122.257 131.444 122.257 131.636C122.257 131.828 122.209 131.924 122.113 131.924C121.185 131.924 120.465 131.908 119.953 131.876L116.881 131.828L113.905 131.876C113.361 131.908 112.609 131.924 111.649 131.924C111.585 131.924 111.553 131.828 111.553 131.636C111.553 131.444 111.585 131.348 111.649 131.348C112.673 131.348 113.425 131.268 113.905 131.108C114.385 130.948 114.705 130.644 114.865 130.196C115.057 129.716 115.153 128.996 115.153 128.036V113.348C115.153 112.388 115.057 111.684 114.865 111.236C114.705 110.788 114.385 110.484 113.905 110.324C113.425 110.132 112.673 110.036 111.649 110.036C111.585 110.036 111.553 109.94 111.553 109.748C111.553 109.556 111.585 109.46 111.649 109.46L113.905 109.508C115.121 109.572 116.113 109.604 116.881 109.604C117.681 109.604 118.721 109.572 120.001 109.508L122.113 109.46C122.209 109.46 122.257 109.556 122.257 109.748C122.257 109.94 122.209 110.036 122.113 110.036C121.121 110.036 120.385 110.132 119.905 110.324C119.457 110.516 119.137 110.852 118.945 111.332C118.785 111.78 118.705 112.484 118.705 113.444V128.036ZM167.229 131.348C167.293 131.348 167.325 131.444 167.325 131.636C167.325 131.828 167.293 131.924 167.229 131.924C166.365 131.924 165.677 131.908 165.165 131.876L161.997 131.828L159.069 131.876C158.525 131.908 157.805 131.924 156.909 131.924C156.845 131.924 156.813 131.828 156.813 131.636C156.813 131.444 156.845 131.348 156.909 131.348C157.901 131.348 158.621 131.268 159.069 131.108C159.549 130.948 159.869 130.644 160.029 130.196C160.221 129.716 160.317 128.996 160.317 128.036V117.764C160.317 115.236 159.917 113.364 159.117 112.148C158.349 110.9 157.133 110.276 155.469 110.276C154.189 110.276 152.957 110.628 151.773 111.332C150.589 112.004 149.501 112.98 148.509 114.26C148.637 114.804 148.701 115.492 148.701 116.324V128.036C148.701 129.028 148.781 129.748 148.941 130.196C149.101 130.644 149.405 130.948 149.853 131.108C150.333 131.268 151.085 131.348 152.109 131.348C152.173 131.348 152.205 131.444 152.205 131.636C152.205 131.828 152.173 131.924 152.109 131.924C151.213 131.924 150.509 131.908 149.997 131.876L146.925 131.828L143.901 131.876C143.389 131.908 142.701 131.924 141.837 131.924C141.741 131.924 141.693 131.828 141.693 131.636C141.693 131.444 141.741 131.348 141.837 131.348C142.829 131.348 143.549 131.268 143.997 131.108C144.477 130.916 144.797 130.596 144.957 130.148C145.149 129.7 145.245 128.996 145.245 128.036V117.764C145.245 112.772 143.613 110.276 140.349 110.276C137.821 110.276 135.549 111.556 133.533 114.116V128.036C133.533 128.996 133.613 129.716 133.773 130.196C133.933 130.644 134.237 130.948 134.685 131.108C135.165 131.268 135.917 131.348 136.941 131.348C137.037 131.348 137.085 131.444 137.085 131.636C137.085 131.828 137.037 131.924 136.941 131.924C136.045 131.924 135.341 131.908 134.829 131.876L131.757 131.828L128.733 131.876C128.221 131.908 127.533 131.924 126.669 131.924C126.573 131.924 126.525 131.828 126.525 131.636C126.525 131.444 126.573 131.348 126.669 131.348C127.661 131.348 128.381 131.268 128.829 131.108C129.309 130.948 129.629 130.644 129.789 130.196C129.949 129.716 130.029 128.996 130.029 128.036V113.348C130.029 112.388 129.933 111.684 129.741 111.236C129.581 110.788 129.261 110.484 128.781 110.324C128.301 110.132 127.549 110.036 126.525 110.036C126.461 110.036 126.429 109.94 126.429 109.748C126.429 109.556 126.461 109.46 126.525 109.46L130.461 109.508L132.621 109.46C133.037 109.46 133.293 109.524 133.389 109.652C133.485 109.748 133.533 109.988 133.533 110.372V113.06C134.813 111.652 136.125 110.596 137.469 109.892C138.845 109.188 140.301 108.836 141.837 108.836C143.533 108.836 144.925 109.236 146.013 110.036C147.133 110.804 147.901 111.94 148.317 113.444C149.693 111.844 151.085 110.676 152.493 109.94C153.901 109.204 155.373 108.836 156.909 108.836C159.085 108.836 160.765 109.476 161.949 110.756C163.165 112.036 163.773 113.892 163.773 116.324V128.036C163.773 128.996 163.853 129.716 164.013 130.196C164.173 130.644 164.493 130.948 164.973 131.108C165.453 131.268 166.205 131.348 167.229 131.348ZM191.874 129.236C192.002 129.236 192.082 129.316 192.114 129.476C192.178 129.604 192.146 129.7 192.018 129.764L186.93 132.212L186.546 132.308C186.002 132.308 185.458 132.02 184.914 131.444C184.402 130.868 184.05 130.004 183.858 128.852L180.786 130.628C179.698 131.236 178.786 131.668 178.05 131.924C177.346 132.148 176.642 132.26 175.938 132.26C174.754 132.26 173.778 131.924 173.01 131.252C172.242 130.58 171.858 129.78 171.858 128.852C171.858 127.732 172.226 126.804 172.962 126.068C173.73 125.3 175.042 124.58 176.898 123.908L183.762 121.412V115.748C183.762 113.796 183.506 112.372 182.994 111.476C182.482 110.58 181.666 110.132 180.546 110.132C179.234 110.132 178.242 110.596 177.57 111.524C176.93 112.452 176.434 113.636 176.082 115.076C175.73 116.484 175.01 117.188 173.922 117.188C173.314 117.188 172.818 117.012 172.434 116.66C172.05 116.308 171.874 115.86 171.906 115.316C171.906 114.484 172.482 113.572 173.634 112.58C174.818 111.588 176.226 110.756 177.858 110.084C179.522 109.38 181.042 109.028 182.418 109.028C183.89 109.028 185.058 109.476 185.922 110.372C186.818 111.236 187.266 112.548 187.266 114.308V125.732C187.266 127.268 187.49 128.324 187.938 128.9C188.386 129.476 188.994 129.764 189.762 129.764C190.274 129.764 190.962 129.588 191.826 129.236H191.874ZM183.81 128.132C183.778 127.972 183.762 127.716 183.762 127.364V122.18L178.818 124.052C177.762 124.468 177.01 124.964 176.562 125.54C176.114 126.084 175.89 126.74 175.89 127.508C175.89 128.308 176.13 128.98 176.61 129.524C177.122 130.068 177.73 130.34 178.434 130.34C179.042 130.34 179.842 130.1 180.834 129.62L183.81 128.132ZM207.834 108.884C209.05 108.884 210.346 109.012 211.722 109.268C213.13 109.492 214.266 109.828 215.13 110.276C215.354 110.372 215.498 110.468 215.562 110.564C215.626 110.66 215.674 110.836 215.706 111.092L216.09 116.036C216.09 116.132 215.994 116.196 215.802 116.228C215.642 116.26 215.546 116.212 215.514 116.084C213.978 111.828 211.13 109.7 206.97 109.7C205.338 109.7 203.898 110.132 202.65 110.996C201.434 111.86 200.474 113.076 199.77 114.644C199.098 116.18 198.762 117.924 198.762 119.876C198.762 121.86 199.098 123.764 199.77 125.588C200.474 127.38 201.53 128.852 202.938 130.004C204.378 131.156 206.122 131.732 208.17 131.732C210.026 131.732 211.594 131.204 212.874 130.148C214.154 129.092 215.178 127.444 215.946 125.204C215.978 125.076 216.074 125.028 216.234 125.06C216.426 125.092 216.522 125.156 216.522 125.252L215.994 130.34C215.962 130.596 215.914 130.772 215.85 130.868C215.786 130.964 215.61 131.076 215.322 131.204C212.858 132.068 210.298 132.5 207.642 132.5C204.602 132.5 202.09 131.892 200.106 130.676C198.154 129.46 196.746 127.94 195.882 126.116C195.018 124.292 194.586 122.452 194.586 120.596C194.586 118.388 195.162 116.404 196.314 114.644C197.466 112.852 199.05 111.444 201.066 110.42C203.114 109.396 205.37 108.884 207.834 108.884ZM248.018 131.348C248.082 131.348 248.114 131.444 248.114 131.636C248.114 131.828 248.082 131.924 248.018 131.924C247.058 131.924 246.306 131.908 245.762 131.876L242.834 131.828L239.762 131.876C239.25 131.908 238.53 131.924 237.602 131.924C237.506 131.924 237.458 131.828 237.458 131.636C237.458 131.444 237.506 131.348 237.602 131.348C238.626 131.348 239.362 131.268 239.81 131.108C240.29 130.948 240.61 130.644 240.77 130.196C240.93 129.716 241.01 128.996 241.01 128.036V121.076H228.194V128.036C228.194 128.996 228.274 129.716 228.434 130.196C228.594 130.644 228.898 130.948 229.346 131.108C229.826 131.268 230.578 131.348 231.602 131.348C231.698 131.348 231.746 131.444 231.746 131.636C231.746 131.828 231.698 131.924 231.602 131.924C230.674 131.924 229.954 131.908 229.442 131.876L226.418 131.828L223.442 131.876C222.898 131.908 222.146 131.924 221.186 131.924C221.122 131.924 221.09 131.828 221.09 131.636C221.09 131.444 221.122 131.348 221.186 131.348C222.21 131.348 222.962 131.268 223.442 131.108C223.922 130.948 224.242 130.644 224.402 130.196C224.594 129.716 224.69 128.996 224.69 128.036V113.348C224.69 112.388 224.594 111.684 224.402 111.236C224.242 110.788 223.922 110.484 223.442 110.324C222.994 110.132 222.274 110.036 221.282 110.036C221.186 110.036 221.138 109.94 221.138 109.748C221.138 109.556 221.186 109.46 221.282 109.46L223.442 109.508C224.658 109.572 225.65 109.604 226.418 109.604C227.186 109.604 228.21 109.572 229.49 109.508L231.602 109.46C231.698 109.46 231.746 109.556 231.746 109.748C231.746 109.94 231.698 110.036 231.602 110.036C230.61 110.036 229.874 110.132 229.394 110.324C228.946 110.516 228.626 110.852 228.434 111.332C228.274 111.78 228.194 112.484 228.194 113.444V120.116H241.01V113.444C241.01 112.484 240.93 111.78 240.77 111.332C240.61 110.852 240.29 110.516 239.81 110.324C239.33 110.132 238.594 110.036 237.602 110.036C237.506 110.036 237.458 109.94 237.458 109.748C237.458 109.556 237.506 109.46 237.602 109.46L239.762 109.508C240.978 109.572 242.002 109.604 242.834 109.604C243.57 109.604 244.546 109.572 245.762 109.508L248.018 109.46C248.082 109.46 248.114 109.556 248.114 109.748C248.114 109.94 248.082 110.036 248.018 110.036C246.994 110.036 246.242 110.132 245.762 110.324C245.282 110.484 244.946 110.788 244.754 111.236C244.594 111.684 244.514 112.388 244.514 113.348V128.036C244.514 128.996 244.594 129.716 244.754 130.196C244.946 130.644 245.282 130.948 245.762 131.108C246.242 131.268 246.994 131.348 248.018 131.348ZM273.41 129.236C273.538 129.236 273.618 129.316 273.65 129.476C273.714 129.604 273.682 129.7 273.554 129.764L268.466 132.212L268.082 132.308C267.538 132.308 266.994 132.02 266.45 131.444C265.938 130.868 265.586 130.004 265.394 128.852L262.322 130.628C261.234 131.236 260.322 131.668 259.586 131.924C258.882 132.148 258.178 132.26 257.474 132.26C256.29 132.26 255.314 131.924 254.546 131.252C253.778 130.58 253.394 129.78 253.394 128.852C253.394 127.732 253.762 126.804 254.498 126.068C255.266 125.3 256.578 124.58 258.434 123.908L265.298 121.412V115.748C265.298 113.796 265.042 112.372 264.53 111.476C264.018 110.58 263.202 110.132 262.082 110.132C260.77 110.132 259.778 110.596 259.106 111.524C258.466 112.452 257.97 113.636 257.618 115.076C257.266 116.484 256.546 117.188 255.458 117.188C254.85 117.188 254.354 117.012 253.97 116.66C253.586 116.308 253.41 115.86 253.442 115.316C253.442 114.484 254.018 113.572 255.17 112.58C256.354 111.588 257.762 110.756 259.394 110.084C261.058 109.38 262.578 109.028 263.954 109.028C265.426 109.028 266.594 109.476 267.458 110.372C268.354 111.236 268.802 112.548 268.802 114.308V125.732C268.802 127.268 269.026 128.324 269.474 128.9C269.922 129.476 270.53 129.764 271.298 129.764C271.81 129.764 272.498 129.588 273.362 129.236H273.41ZM265.346 128.132C265.314 127.972 265.298 127.716 265.298 127.364V122.18L260.354 124.052C259.298 124.468 258.546 124.964 258.098 125.54C257.65 126.084 257.426 126.74 257.426 127.508C257.426 128.308 257.666 128.98 258.146 129.524C258.658 130.068 259.266 130.34 259.97 130.34C260.578 130.34 261.378 130.1 262.37 129.62L265.346 128.132ZM282.939 127.844C282.939 128.74 283.019 129.412 283.179 129.86C283.371 130.308 283.707 130.628 284.187 130.82C284.667 130.98 285.403 131.06 286.395 131.06H288.699C290.427 131.06 291.867 130.516 293.019 129.428C294.203 128.308 295.035 126.804 295.515 124.916C295.515 124.852 295.579 124.82 295.707 124.82C295.803 124.82 295.883 124.836 295.947 124.868C296.043 124.9 296.091 124.948 296.091 125.012C295.867 126.548 295.755 128.612 295.755 131.204C295.755 131.46 295.691 131.652 295.563 131.78C295.467 131.876 295.275 131.924 294.987 131.924H276.075C276.011 131.924 275.979 131.828 275.979 131.636C275.979 131.444 276.011 131.348 276.075 131.348C277.067 131.348 277.787 131.268 278.235 131.108C278.683 130.948 278.987 130.644 279.147 130.196C279.307 129.716 279.387 128.996 279.387 128.036V113.348C279.387 112.388 279.307 111.684 279.147 111.236C278.987 110.788 278.667 110.484 278.187 110.324C277.739 110.132 277.035 110.036 276.075 110.036C276.011 110.036 275.979 109.94 275.979 109.748C275.979 109.556 276.011 109.46 276.075 109.46L278.283 109.508C279.563 109.572 280.555 109.604 281.259 109.604C282.027 109.604 283.051 109.572 284.331 109.508L286.443 109.46C286.507 109.46 286.539 109.556 286.539 109.748C286.539 109.94 286.507 110.036 286.443 110.036C285.419 110.036 284.667 110.132 284.187 110.324C283.707 110.484 283.371 110.804 283.179 111.284C283.019 111.732 282.939 112.436 282.939 113.396V127.844ZM328.14 101.924C328.236 101.924 328.284 102.02 328.284 102.212C328.284 102.404 328.236 102.5 328.14 102.5C325.836 102.5 324.108 103.956 322.956 106.868L313.164 131.876C313.132 132.004 312.956 132.068 312.636 132.068C312.316 132.068 312.14 132.004 312.108 131.876L300.06 105.908C299.484 104.692 298.892 103.828 298.284 103.316C297.708 102.772 296.988 102.5 296.124 102.5C296.028 102.5 295.98 102.404 295.98 102.212C295.98 102.02 296.028 101.924 296.124 101.924L297.612 101.972C298.444 102.036 299.228 102.068 299.964 102.068C301.724 102.068 303.404 102.036 305.004 101.972C305.516 101.94 306.172 101.924 306.972 101.924C307.068 101.924 307.116 102.02 307.116 102.212C307.116 102.404 307.068 102.5 306.972 102.5C304.988 102.5 303.996 103.124 303.996 104.372C303.996 104.82 304.14 105.38 304.428 106.052L313.932 126.692L321.804 106.676C322.06 105.972 322.188 105.364 322.188 104.852C322.188 103.284 320.972 102.5 318.54 102.5C318.444 102.5 318.396 102.404 318.396 102.212C318.396 102.02 318.444 101.924 318.54 101.924L320.7 101.972C321.852 102.036 322.908 102.068 323.868 102.068C324.54 102.068 325.292 102.036 326.124 101.972L328.14 101.924ZM350.071 129.236C350.199 129.236 350.279 129.316 350.311 129.476C350.375 129.604 350.343 129.7 350.215 129.764L345.127 132.212L344.743 132.308C344.199 132.308 343.655 132.02 343.111 131.444C342.599 130.868 342.247 130.004 342.055 128.852L338.983 130.628C337.895 131.236 336.983 131.668 336.247 131.924C335.543 132.148 334.839 132.26 334.135 132.26C332.951 132.26 331.975 131.924 331.207 131.252C330.439 130.58 330.055 129.78 330.055 128.852C330.055 127.732 330.423 126.804 331.159 126.068C331.927 125.3 333.239 124.58 335.095 123.908L341.959 121.412V115.748C341.959 113.796 341.703 112.372 341.191 111.476C340.679 110.58 339.863 110.132 338.743 110.132C337.431 110.132 336.439 110.596 335.767 111.524C335.127 112.452 334.631 113.636 334.279 115.076C333.927 116.484 333.207 117.188 332.119 117.188C331.511 117.188 331.015 117.012 330.631 116.66C330.247 116.308 330.071 115.86 330.103 115.316C330.103 114.484 330.679 113.572 331.831 112.58C333.015 111.588 334.423 110.756 336.055 110.084C337.719 109.38 339.239 109.028 340.615 109.028C342.087 109.028 343.255 109.476 344.119 110.372C345.015 111.236 345.463 112.548 345.463 114.308V125.732C345.463 127.268 345.687 128.324 346.135 128.9C346.583 129.476 347.191 129.764 347.959 129.764C348.471 129.764 349.159 129.588 350.023 129.236H350.071ZM342.007 128.132C341.975 127.972 341.959 127.716 341.959 127.364V122.18L337.015 124.052C335.959 124.468 335.207 124.964 334.759 125.54C334.311 126.084 334.087 126.74 334.087 127.508C334.087 128.308 334.327 128.98 334.807 129.524C335.319 130.068 335.927 130.34 336.631 130.34C337.239 130.34 338.039 130.1 339.031 129.62L342.007 128.132ZM359.6 127.844C359.6 128.74 359.68 129.412 359.84 129.86C360.032 130.308 360.368 130.628 360.848 130.82C361.328 130.98 362.064 131.06 363.056 131.06H365.36C367.088 131.06 368.528 130.516 369.68 129.428C370.864 128.308 371.696 126.804 372.176 124.916C372.176 124.852 372.24 124.82 372.368 124.82C372.464 124.82 372.544 124.836 372.608 124.868C372.704 124.9 372.752 124.948 372.752 125.012C372.528 126.548 372.416 128.612 372.416 131.204C372.416 131.46 372.352 131.652 372.224 131.78C372.128 131.876 371.936 131.924 371.648 131.924H352.736C352.672 131.924 352.64 131.828 352.64 131.636C352.64 131.444 352.672 131.348 352.736 131.348C353.728 131.348 354.448 131.268 354.896 131.108C355.344 130.948 355.648 130.644 355.808 130.196C355.968 129.716 356.048 128.996 356.048 128.036V113.348C356.048 112.388 355.968 111.684 355.808 111.236C355.648 110.788 355.328 110.484 354.848 110.324C354.4 110.132 353.696 110.036 352.736 110.036C352.672 110.036 352.64 109.94 352.64 109.748C352.64 109.556 352.672 109.46 352.736 109.46L354.944 109.508C356.224 109.572 357.216 109.604 357.92 109.604C358.688 109.604 359.712 109.572 360.992 109.508L363.104 109.46C363.168 109.46 363.2 109.556 363.2 109.748C363.2 109.94 363.168 110.036 363.104 110.036C362.08 110.036 361.328 110.132 360.848 110.324C360.368 110.484 360.032 110.804 359.84 111.284C359.68 111.732 359.6 112.436 359.6 113.396V127.844ZM382.872 127.844C382.872 128.74 382.952 129.412 383.112 129.86C383.304 130.308 383.64 130.628 384.12 130.82C384.6 130.98 385.336 131.06 386.328 131.06H388.632C390.36 131.06 391.8 130.516 392.952 129.428C394.136 128.308 394.968 126.804 395.448 124.916C395.448 124.852 395.512 124.82 395.64 124.82C395.736 124.82 395.816 124.836 395.88 124.868C395.976 124.9 396.024 124.948 396.024 125.012C395.8 126.548 395.688 128.612 395.688 131.204C395.688 131.46 395.624 131.652 395.496 131.78C395.4 131.876 395.208 131.924 394.92 131.924H376.008C375.944 131.924 375.912 131.828 375.912 131.636C375.912 131.444 375.944 131.348 376.008 131.348C377 131.348 377.72 131.268 378.168 131.108C378.616 130.948 378.92 130.644 379.08 130.196C379.24 129.716 379.32 128.996 379.32 128.036V113.348C379.32 112.388 379.24 111.684 379.08 111.236C378.92 110.788 378.6 110.484 378.12 110.324C377.672 110.132 376.968 110.036 376.008 110.036C375.944 110.036 375.912 109.94 375.912 109.748C375.912 109.556 375.944 109.46 376.008 109.46L378.216 109.508C379.496 109.572 380.488 109.604 381.192 109.604C381.96 109.604 382.984 109.572 384.264 109.508L386.376 109.46C386.44 109.46 386.472 109.556 386.472 109.748C386.472 109.94 386.44 110.036 386.376 110.036C385.352 110.036 384.6 110.132 384.12 110.324C383.64 110.484 383.304 110.804 383.112 111.284C382.952 111.732 382.872 112.436 382.872 113.396V127.844ZM417.473 129.332C417.569 129.332 417.649 129.396 417.713 129.524C417.809 129.62 417.825 129.716 417.761 129.812C415.521 131.604 413.057 132.5 410.369 132.5C408.001 132.5 405.985 131.972 404.321 130.916C402.657 129.828 401.409 128.42 400.577 126.692C399.745 124.964 399.329 123.108 399.329 121.124C399.329 118.916 399.857 116.884 400.913 115.028C402.001 113.14 403.441 111.652 405.233 110.564C407.025 109.476 408.977 108.932 411.089 108.932C413.297 108.932 414.961 109.54 416.081 110.756C417.233 111.972 417.809 113.588 417.809 115.604C417.809 115.956 417.761 116.212 417.665 116.372C417.601 116.5 417.457 116.564 417.233 116.564L403.313 116.612C403.185 117.7 403.121 118.596 403.121 119.3C403.121 122.692 403.937 125.46 405.569 127.604C407.201 129.748 409.441 130.82 412.289 130.82C413.185 130.82 414.081 130.708 414.977 130.484C415.905 130.228 416.721 129.844 417.425 129.332H417.473ZM409.553 109.988C408.049 109.988 406.769 110.5 405.713 111.524C404.657 112.548 403.921 113.988 403.505 115.844L413.873 115.652C413.905 113.828 413.553 112.436 412.817 111.476C412.081 110.484 410.993 109.988 409.553 109.988ZM444.705 109.46C444.769 109.46 444.801 109.556 444.801 109.748C444.801 109.94 444.769 110.036 444.705 110.036C443.777 110.036 442.961 110.34 442.257 110.948C441.553 111.524 440.961 112.484 440.481 113.828L433.377 131.876C432.641 133.828 431.713 135.556 430.593 137.06C429.473 138.596 428.289 139.684 427.041 140.324C426.913 140.388 426.673 140.276 426.321 139.988C425.969 139.732 425.681 139.412 425.457 139.028C425.201 138.452 425.073 137.924 425.073 137.444C425.073 137.028 425.153 136.82 425.313 136.82C426.977 136.532 428.401 136.036 429.585 135.332C430.769 134.66 431.713 133.572 432.417 132.068L423.537 113.444C422.897 112.1 422.337 111.204 421.857 110.756C421.377 110.276 420.721 110.036 419.889 110.036C419.793 110.036 419.745 109.94 419.745 109.748C419.745 109.556 419.793 109.46 419.889 109.46L421.809 109.508C422.833 109.572 423.697 109.604 424.401 109.604C425.233 109.604 426.193 109.572 427.281 109.508L429.297 109.46C429.393 109.46 429.441 109.556 429.441 109.748C429.441 109.94 429.393 110.036 429.297 110.036C427.665 110.036 426.849 110.532 426.849 111.524C426.849 111.972 426.977 112.452 427.233 112.964L434.193 127.316L439.377 113.54C439.601 112.964 439.713 112.436 439.713 111.956C439.713 110.676 438.673 110.036 436.593 110.036C436.497 110.036 436.449 109.94 436.449 109.748C436.449 109.556 436.497 109.46 436.593 109.46L438.321 109.508C439.281 109.572 440.177 109.604 441.009 109.604C441.585 109.604 442.225 109.572 442.929 109.508L444.705 109.46Z" fill="white"/>
<path d="M163.048 161.34C163.048 162.364 162.8 163.236 162.304 163.956C161.808 164.66 161.096 165.204 160.168 165.588C159.256 165.972 158.176 166.164 156.928 166.164C156.288 166.164 155.672 166.132 155.08 166.068C154.504 166.004 153.976 165.916 153.496 165.804C153.016 165.676 152.592 165.524 152.224 165.348V163.284C152.8 163.54 153.512 163.772 154.36 163.98C155.224 164.188 156.112 164.292 157.024 164.292C157.872 164.292 158.584 164.18 159.16 163.956C159.736 163.732 160.168 163.412 160.456 162.996C160.744 162.58 160.888 162.092 160.888 161.532C160.888 160.972 160.768 160.5 160.528 160.116C160.288 159.732 159.872 159.38 159.28 159.06C158.704 158.724 157.896 158.372 156.856 158.004C156.12 157.732 155.472 157.444 154.912 157.14C154.368 156.82 153.912 156.46 153.544 156.06C153.176 155.66 152.896 155.204 152.704 154.692C152.528 154.18 152.44 153.588 152.44 152.916C152.44 152.004 152.672 151.228 153.136 150.588C153.6 149.932 154.24 149.428 155.056 149.076C155.888 148.724 156.84 148.548 157.912 148.548C158.856 148.548 159.72 148.636 160.504 148.812C161.288 148.988 162 149.22 162.64 149.508L161.968 151.356C161.376 151.1 160.728 150.884 160.024 150.708C159.336 150.532 158.616 150.444 157.864 150.444C157.144 150.444 156.544 150.548 156.064 150.756C155.584 150.964 155.224 151.26 154.984 151.644C154.744 152.012 154.624 152.444 154.624 152.94C154.624 153.516 154.744 153.996 154.984 154.38C155.224 154.764 155.616 155.108 156.16 155.412C156.704 155.716 157.44 156.044 158.368 156.396C159.376 156.764 160.224 157.164 160.912 157.596C161.616 158.012 162.144 158.516 162.496 159.108C162.864 159.7 163.048 160.444 163.048 161.34ZM170.724 153.06V165.924H168.612V153.06H170.724ZM169.692 148.236C170.012 148.236 170.292 148.348 170.532 148.572C170.788 148.78 170.916 149.116 170.916 149.58C170.916 150.028 170.788 150.364 170.532 150.588C170.292 150.812 170.012 150.924 169.692 150.924C169.34 150.924 169.044 150.812 168.804 150.588C168.564 150.364 168.444 150.028 168.444 149.58C168.444 149.116 168.564 148.78 168.804 148.572C169.044 148.348 169.34 148.236 169.692 148.236ZM183.391 152.82C184.927 152.82 186.087 153.196 186.871 153.948C187.655 154.684 188.047 155.884 188.047 157.548V165.924H185.959V157.692C185.959 156.652 185.727 155.876 185.263 155.364C184.799 154.852 184.071 154.596 183.079 154.596C181.655 154.596 180.671 154.996 180.127 155.796C179.583 156.596 179.311 157.748 179.311 159.252V165.924H177.199V153.06H178.903L179.215 154.812H179.335C179.623 154.364 179.975 153.996 180.391 153.708C180.823 153.404 181.295 153.18 181.807 153.036C182.319 152.892 182.847 152.82 183.391 152.82ZM199.595 166.164C198.459 166.164 197.443 165.932 196.547 165.468C195.667 165.004 194.971 164.284 194.459 163.308C193.963 162.332 193.715 161.084 193.715 159.564C193.715 157.98 193.979 156.692 194.507 155.7C195.035 154.708 195.747 153.98 196.643 153.516C197.555 153.052 198.587 152.82 199.739 152.82C200.395 152.82 201.027 152.892 201.635 153.036C202.243 153.164 202.739 153.324 203.123 153.516L202.475 155.268C202.091 155.124 201.643 154.988 201.131 154.86C200.619 154.732 200.139 154.668 199.691 154.668C198.827 154.668 198.115 154.852 197.555 155.22C196.995 155.588 196.579 156.132 196.307 156.852C196.035 157.572 195.899 158.468 195.899 159.54C195.899 160.564 196.035 161.436 196.307 162.156C196.579 162.876 196.987 163.42 197.531 163.788C198.075 164.156 198.755 164.34 199.571 164.34C200.275 164.34 200.891 164.268 201.419 164.124C201.963 163.98 202.459 163.804 202.907 163.596V165.468C202.475 165.692 201.995 165.86 201.467 165.972C200.955 166.1 200.331 166.164 199.595 166.164ZM213.335 152.82C214.439 152.82 215.383 153.06 216.167 153.54C216.967 154.02 217.575 154.7 217.991 155.58C218.423 156.444 218.639 157.46 218.639 158.628V159.9H209.831C209.863 161.356 210.231 162.468 210.935 163.236C211.655 163.988 212.655 164.364 213.935 164.364C214.751 164.364 215.471 164.292 216.095 164.148C216.735 163.988 217.391 163.764 218.063 163.476V165.324C217.407 165.612 216.759 165.82 216.119 165.948C215.479 166.092 214.719 166.164 213.839 166.164C212.623 166.164 211.543 165.916 210.599 165.42C209.671 164.924 208.943 164.188 208.415 163.212C207.903 162.22 207.647 161.012 207.647 159.588C207.647 158.18 207.879 156.972 208.343 155.964C208.823 154.956 209.487 154.18 210.335 153.636C211.199 153.092 212.199 152.82 213.335 152.82ZM213.311 154.548C212.303 154.548 211.503 154.876 210.911 155.532C210.335 156.172 209.991 157.068 209.879 158.22H216.431C216.431 157.484 216.319 156.844 216.095 156.3C215.871 155.756 215.527 155.332 215.063 155.028C214.615 154.708 214.031 154.548 213.311 154.548ZM243.388 165.924H232.06V164.172L236.548 159.636C237.412 158.772 238.14 158.004 238.732 157.332C239.324 156.66 239.772 156.004 240.076 155.364C240.38 154.708 240.532 153.996 240.532 153.228C240.532 152.284 240.252 151.572 239.692 151.092C239.132 150.596 238.404 150.348 237.508 150.348C236.676 150.348 235.94 150.492 235.3 150.78C234.676 151.068 234.036 151.468 233.38 151.98L232.252 150.564C232.7 150.18 233.188 149.836 233.716 149.532C234.26 149.228 234.844 148.988 235.468 148.812C236.108 148.636 236.788 148.548 237.508 148.548C238.58 148.548 239.5 148.732 240.268 149.1C241.036 149.468 241.628 149.996 242.044 150.684C242.476 151.356 242.692 152.164 242.692 153.108C242.692 153.78 242.588 154.42 242.38 155.028C242.172 155.62 241.876 156.204 241.492 156.78C241.108 157.356 240.644 157.94 240.1 158.532C239.556 159.124 238.956 159.74 238.3 160.38L234.724 163.908V164.004H243.388V165.924ZM259.594 157.332C259.594 158.724 259.49 159.964 259.282 161.052C259.074 162.14 258.738 163.068 258.274 163.836C257.826 164.588 257.234 165.164 256.498 165.564C255.778 165.964 254.906 166.164 253.882 166.164C252.602 166.164 251.538 165.812 250.69 165.108C249.858 164.404 249.234 163.396 248.818 162.084C248.418 160.756 248.218 159.172 248.218 157.332C248.218 155.476 248.402 153.892 248.77 152.58C249.154 151.268 249.762 150.268 250.594 149.58C251.426 148.876 252.522 148.524 253.882 148.524C255.162 148.524 256.226 148.876 257.074 149.58C257.922 150.268 258.554 151.268 258.97 152.58C259.386 153.892 259.594 155.476 259.594 157.332ZM250.33 157.332C250.33 158.9 250.442 160.204 250.666 161.244C250.906 162.284 251.282 163.068 251.794 163.596C252.322 164.108 253.018 164.364 253.882 164.364C254.746 164.364 255.434 164.108 255.946 163.596C256.474 163.084 256.858 162.308 257.098 161.268C257.338 160.212 257.458 158.9 257.458 157.332C257.458 155.764 257.338 154.468 257.098 153.444C256.858 152.404 256.474 151.628 255.946 151.116C255.434 150.588 254.746 150.324 253.882 150.324C253.018 150.324 252.322 150.588 251.794 151.116C251.282 151.628 250.906 152.404 250.666 153.444C250.442 154.468 250.33 155.764 250.33 157.332ZM275.729 157.332C275.729 158.724 275.625 159.964 275.417 161.052C275.209 162.14 274.873 163.068 274.409 163.836C273.961 164.588 273.369 165.164 272.633 165.564C271.913 165.964 271.041 166.164 270.017 166.164C268.737 166.164 267.673 165.812 266.825 165.108C265.993 164.404 265.369 163.396 264.953 162.084C264.553 160.756 264.353 159.172 264.353 157.332C264.353 155.476 264.537 153.892 264.905 152.58C265.289 151.268 265.897 150.268 266.729 149.58C267.561 148.876 268.657 148.524 270.017 148.524C271.297 148.524 272.361 148.876 273.209 149.58C274.057 150.268 274.689 151.268 275.105 152.58C275.521 153.892 275.729 155.476 275.729 157.332ZM266.465 157.332C266.465 158.9 266.577 160.204 266.801 161.244C267.041 162.284 267.417 163.068 267.929 163.596C268.457 164.108 269.153 164.364 270.017 164.364C270.881 164.364 271.569 164.108 272.081 163.596C272.609 163.084 272.993 162.308 273.233 161.268C273.473 160.212 273.593 158.9 273.593 157.332C273.593 155.764 273.473 154.468 273.233 153.444C272.993 152.404 272.609 151.628 272.081 151.116C271.569 150.588 270.881 150.324 270.017 150.324C269.153 150.324 268.457 150.588 267.929 151.116C267.417 151.628 267.041 152.404 266.801 153.444C266.577 154.468 266.465 155.764 266.465 157.332ZM291.863 157.332C291.863 158.724 291.759 159.964 291.551 161.052C291.343 162.14 291.007 163.068 290.543 163.836C290.095 164.588 289.503 165.164 288.767 165.564C288.047 165.964 287.175 166.164 286.151 166.164C284.871 166.164 283.807 165.812 282.959 165.108C282.127 164.404 281.503 163.396 281.087 162.084C280.687 160.756 280.487 159.172 280.487 157.332C280.487 155.476 280.671 153.892 281.039 152.58C281.423 151.268 282.031 150.268 282.863 149.58C283.695 148.876 284.791 148.524 286.151 148.524C287.431 148.524 288.495 148.876 289.343 149.58C290.191 150.268 290.823 151.268 291.239 152.58C291.655 153.892 291.863 155.476 291.863 157.332ZM282.599 157.332C282.599 158.9 282.711 160.204 282.935 161.244C283.175 162.284 283.551 163.068 284.063 163.596C284.591 164.108 285.287 164.364 286.151 164.364C287.015 164.364 287.703 164.108 288.215 163.596C288.743 163.084 289.127 162.308 289.367 161.268C289.607 160.212 289.727 158.9 289.727 157.332C289.727 155.764 289.607 154.468 289.367 153.444C289.127 152.404 288.743 151.628 288.215 151.116C287.703 150.588 287.015 150.324 286.151 150.324C285.287 150.324 284.591 150.588 284.063 151.116C283.551 151.628 283.175 152.404 282.935 153.444C282.711 154.468 282.599 155.764 282.599 157.332Z" fill="white" fill-opacity="0.8"/>
</svg>
