<svg width="152" height="24" viewBox="0 0 152 24" fill="none" xmlns="http://www.w3.org/2000/svg">
<path d="M12 18.0737L18.489 22L16.767 14.6L22.5 9.62105L14.9505 8.97895L12 2L9.0495 8.97895L1.5 9.62105L7.233 14.6L5.511 22L12 18.0737Z" fill="#FFE600"/>
<path d="M44 18.0737L50.489 22L48.767 14.6L54.5 9.62105L46.9505 8.97895L44 2L41.0495 8.97895L33.5 9.62105L39.233 14.6L37.511 22L44 18.0737Z" fill="#FFE600"/>
<path d="M76 18.0737L82.489 22L80.767 14.6L86.5 9.62105L78.9505 8.97895L76 2L73.0495 8.97895L65.5 9.62105L71.233 14.6L69.511 22L76 18.0737Z" fill="#FFE600"/>
<path d="M108 18.0737L114.489 22L112.767 14.6L118.5 9.62105L110.95 8.97895L108 2L105.049 8.97895L97.5 9.62105L103.233 14.6L101.511 22L108 18.0737Z" fill="#FFE600"/>
<path d="M140 18.0737L146.489 22L144.767 14.6L150.5 9.62105L142.95 8.97895L140 2L137.049 8.97895L129.5 9.62105L135.233 14.6L133.511 22L140 18.0737Z" fill="#FFE600"/>
</svg>
